# xmcd
#
# Track frame offsets:
#	150
#	19238
#	40919
#	55567
#	70550
#	82832
#	101437
#	120331
#	141269
#	154103
#
# Disc length: 2217 seconds
#
# Revision: 0
# Processed by: cddbd v1.5.2PL0 Copyright (c) Steve Scherf et al.
# Submitted via: EasyCDDAExtractor 15.3.0.1
#
DISCID=7008a70a
DTITLE=Scott Miller and The Commonwealth - Big Big World
DYEAR=2013
DGENRE=Country
TTITLE0=How Am I Ever Gonna Be Me?
TTITLE1=Freight Train Heart - Stone Wall Love
TTITLE2=You Got Love
TTITLE3=I Gave You The Power
TTITLE4=It's A Big Big World
TTITLE5=Heavy On My Mind
TTITLE6=Why Won't You Give Me Your Love?
TTITLE7=Cold War Veterans
TTITLE8=I Can't Go Back To Her Love Anymore
TTITLE9=Goin' Home
EXTD=
EXTT0=
EXTT1=
EXTT2=
EXTT3=
EXTT4=
EXTT5=
EXTT6=
EXTT7=
EXTT8=
EXTT9=
PLAYORDER=
